<svg width="29" height="24" viewBox="0 0 29 24" fill="none" xmlns="http://www.w3.org/2000/svg">
<g id="&#240;&#159;&#166;&#134; icon &#34;Burger Nav Fill&#34;">
<path id="Vector" fill-rule="evenodd" clip-rule="evenodd" d="M0 3.06511C0 1.80066 1.02503 0.775635 2.28947 0.775635H26.7105C27.9749 0.775635 29 1.80066 29 3.06511C29 4.32955 27.9749 5.35458 26.7105 5.35458H2.28947C1.02503 5.35458 0 4.32955 0 3.06511ZM0 12.223C0 10.9586 1.02503 9.93354 2.28947 9.93354H26.7105C27.9749 9.93354 29 10.9586 29 12.223C29 13.4874 27.9749 14.5125 26.7105 14.5125H2.28947C1.02503 14.5125 0 13.4874 0 12.223ZM0 21.3809C0 20.1165 1.02503 19.0914 2.28947 19.0914H26.7105C27.9749 19.0914 29 20.1165 29 21.3809C29 22.6453 27.9749 23.6704 26.7105 23.6704H2.28947C1.02503 23.6704 0 22.6453 0 21.3809Z" fill="black"/>
</g>
</svg>
