<svg width="27" height="24" viewBox="0 0 27 24" fill="none" xmlns="http://www.w3.org/2000/svg">
<g id="&#240;&#159;&#166;&#134; icon &#34;filters 1&#34;">
<g id="Group">
<path id="Vector" d="M23.2227 9.33333V1" stroke="white" stroke-linecap="round"/>
<path id="Vector_2" d="M23.2227 14.8889V23.2222" stroke="white" stroke-linecap="round"/>
<path id="Vector_3" d="M13.5005 17.6667V1" stroke="white" stroke-linecap="round"/>
<path id="Vector_4" d="M3.77832 6.55542V23.2221" stroke="white" stroke-linecap="round"/>
<path id="Vector_5" d="M3.77778 6.55556C5.3119 6.55556 6.55556 5.3119 6.55556 3.77778C6.55556 2.24365 5.3119 1 3.77778 1C2.24365 1 1 2.24365 1 3.77778C1 5.3119 2.24365 6.55556 3.77778 6.55556Z" stroke="white" stroke-linecap="round"/>
<path id="Vector_6" d="M13.4999 23.2223C15.0341 23.2223 16.2777 21.9787 16.2777 20.4445C16.2777 18.9104 15.0341 17.6667 13.4999 17.6667C11.9658 17.6667 10.7222 18.9104 10.7222 20.4445C10.7222 21.9787 11.9658 23.2223 13.4999 23.2223Z" stroke="white" stroke-linecap="round"/>
<path id="Vector_7" d="M23.2221 14.8888C24.7563 14.8888 25.9999 13.6452 25.9999 12.111C25.9999 10.5769 24.7563 9.33325 23.2221 9.33325C21.6879 9.33325 20.4443 10.5769 20.4443 12.111C20.4443 13.6452 21.6879 14.8888 23.2221 14.8888Z" stroke="white" stroke-linecap="round"/>
</g>
</g>
</svg>
