<svg width="35" height="35" viewBox="0 0 35 35" fill="none" xmlns="http://www.w3.org/2000/svg">
<path d="M17.5 2C8.93958 2 2 8.93958 2 17.5C2 26.0603 8.93958 33 17.5 33C26.0603 33 33 26.0603 33 17.5C33 8.93958 26.0603 2 17.5 2Z" stroke="black" stroke-width="3" stroke-linecap="round" stroke-linejoin="round"/>
<path d="M5.52002 27.3358C5.52002 27.3358 8.975 22.925 17.5 22.925C26.025 22.925 29.4801 27.3358 29.4801 27.3358" stroke="black" stroke-width="3" stroke-linecap="round" stroke-linejoin="round"/>
<path d="M17.4999 17.5C20.068 17.5 22.1499 15.4182 22.1499 12.85C22.1499 10.2819 20.068 8.20001 17.4999 8.20001C14.9317 8.20001 12.8499 10.2819 12.8499 12.85C12.8499 15.4182 14.9317 17.5 17.4999 17.5Z" stroke="black" stroke-width="3" stroke-linecap="round" stroke-linejoin="round"/>
</svg>
